<?xml version="1.0" encoding="UTF-8"?>
<!-- Created with Inkscape (http://www.inkscape.org/) -->
<svg width="1024" height="1024" version="1.1" viewBox="0 0 270.93 270.93" xml:space="preserve" xmlns="http://www.w3.org/2000/svg" xmlns:xlink="http://www.w3.org/1999/xlink"><defs><linearGradient id="linearGradient5786" x1="97.221" x2="111.22" y1="122.52" y2="122.52" gradientTransform="matrix(.86935 0 0 .85045 -84.254 -97.978)" gradientUnits="userSpaceOnUse"><stop stop-color="#06f" offset="0"/><stop stop-color="#0cf" offset="1"/></linearGradient></defs><g transform="scale(21.333)" stroke-linecap="round" stroke-width=".046875"><path d="m6.35 0.26458h9e-7c3.3713 0 6.0854 2.7141 6.0854 6.0854s-2.7141 6.0854-6.0854 6.0854h-9e-7c-3.3713 0-6.0854-2.7141-6.0854-6.0854s2.7141-6.0854 6.0854-6.0854z" opacity=".3" stroke-linejoin="round"/><path d="m6.35 0.26458c3.3713 0 6.0854 2.6551 6.0854 5.9531s-2.7141 5.9531-6.0854 5.9531c-3.3713 0-6.0854-2.6551-6.0854-5.9531s2.7141-5.9531 6.0854-5.9531z" fill="url(#linearGradient5786)" stroke-linejoin="round"/><path d="m6.4944 2.0976c-0.03066-2.056e-4 -0.061394 0.00227-0.091984 0.00775-0.061201 0.010989-0.11926 0.033154-0.17157 0.066664-0.22038 0.14145-0.28456 0.43255-0.14263 0.65216 0.86989 1.3471 1.1449 2.3825 0.99012 3.2773-0.1492 0.86248-0.43754 1.3845-0.78135 1.6914-0.34381 0.30685-0.74084 0.39274-1.0899 0.39274-0.1807 0-0.3145-0.078286-0.39222-0.19947-0.077723-0.12118-0.10246-0.27817-0.089917-0.44287 0.025079-0.3294 0.19618-0.69433 0.46664-0.86765v-0.00155c0.30673-0.19158 0.69421-0.31471 1.002-0.31471 0.26199 3.73e-5 0.47277-0.21178 0.47284-0.47284-6.74e-5 -0.26106-0.21085-0.47029-0.47284-0.47026-0.33504 0-0.66438 0.070832-0.97255 0.1912l-0.091984 0.03514 0.021704-0.095601c0.062964-0.29728 0.084188-0.6156 0.0036174-0.95343-0.12218-0.51238-0.47312-1.0064-1.0955-1.4898-0.098997-0.077003-0.22521-0.11152-0.34985-0.096118-0.1246 0.01541-0.23913 0.079051-0.31626 0.17777-0.16079 0.20616-0.12255 0.50212 0.084232 0.66249 0.51761 0.40205 0.69662 0.70921 0.75758 0.9648 0.061255 0.25687 0.011764 0.52631-0.10542 0.88677-0.14928 0.48394-0.32066 0.91171-0.39481 1.3162-0.03605 0.19666-0.038864 0.41565-0.048576 0.59376l-0.00775 0.11731-0.082166-0.082166c-0.010382-0.010123-0.00339-0.032583-0.013436-0.042891l-0.00413 0.00207c1.22e-4 -0.00223-1.199e-4 -0.0055 0-0.00775-0.35448-0.36675-0.5116-0.83695-0.5116-1.5157-6.66e-5 -0.26105-0.21291-0.47288-0.47491-0.47284-0.26181 2.492e-4 -0.47226 0.21198-0.47232 0.47284 0 0.9358 0.29689 1.7892 1.002 2.4081 0.33063 0.29023 0.91872 0.39456 1.4314 0.5488 0.25636 0.07712 0.4956 0.16844 0.67386 0.31058 0.17826 0.14214 0.29301 0.33999 0.29301 0.61133 0 0.11922 0.085771 0.21078 0.21859 0.2775s0.30672 0.10129 0.44338 0.10129c0.13716 0 0.29994-0.04736 0.4222-0.12092 0.12226-0.07356 0.19689-0.17032 0.19689-0.25787 0-0.60158 0.32251-1.0907 0.89452-1.4201s1.3926-0.50537 2.4102-0.50385c0.26197 4.151e-4 0.47457-0.20972 0.47491-0.47077 4.99e-4 -0.26105-0.21084-0.47234-0.47284-0.47284-0.13706-1.82e-4 -0.27045 0.0040455-0.40256 0.011886l-0.085783 0.00568 0.033073-0.078031c0.22291-0.52425 0.32339-1.1027 0.30282-1.7286-0.0085963-0.2609-0.2265-0.46329-0.48834-0.45475-0.26207 0.0084543-0.46751 0.22511-0.45889 0.48628 0.013711 0.41524 0.013348 0.81194-0.07028 1.1581s-0.25321 0.6432-0.57413 0.84594c-0.17942 0.11336-0.39058 0.21446-0.60151 0.21446h-0.076481l0.027388-0.07028c0.14896-0.40521 0.26103-0.83145 0.30696-1.2909 0.029268-0.29277 0.033138-0.64433 0-0.91209-0.052445-0.42376-0.12152-0.91218 0.048576-1.295 0.077449-0.16711 0.20693-0.2893 0.37517-0.36535 0.16824-0.076051 0.37437-0.10697 0.61702-0.10697 0.26181-2.491e-4 0.47277-0.21198 0.47284-0.47284 1.665e-4 -0.26106-0.21084-0.47261-0.47284-0.47284-0.68827 0-1.2066 0.36215-1.5017 0.79892l-0.05271 0.078031-0.039274-0.085783c-0.15776-0.33698-0.34943-0.68287-0.58188-1.0428-0.067891-0.10511-0.1761-0.18069-0.29869-0.20722-0.030363-0.00661-0.061324-0.00961-0.091984-0.00982z" fill="#fff" stroke-width=".046875"/></g></svg>
